<?xml version="1.0" standalone="no"?><!DOCTYPE svg PUBLIC "-//W3C//DTD SVG 1.1//EN" "http://www.w3.org/Graphics/SVG/1.1/DTD/svg11.dtd"><svg t="1482737543560" class="icon" style="" viewBox="0 0 1052 1024" version="1.1" xmlns="http://www.w3.org/2000/svg" p-id="2086" xmlns:xlink="http://www.w3.org/1999/xlink" width="205.46875" height="200"><defs><style type="text/css"></style></defs><path d="M261.683548 573.432351l-17.91667 64.584418h-58.979277L261.683548 386.411859h74.660484l78.016975 251.60491h-61.221333l-19.413573-64.584418H261.683548z m63.83267-42.552916l-15.674614-53.380729c-4.477519-14.929459-8.955038-33.597877-12.693996-48.527337h-0.745155c-3.732365 14.929459-7.46473 33.973752-11.572968 48.527337l-14.929459 53.380729h55.616192zM649.163681 626.4438c-17.540796 5.974421-50.769393 14.184305-83.984802 14.184306-45.922594 0-79.144598-11.572969-102.290535-33.967158-23.145937-21.649035-35.839934-54.508352-35.46406-91.46272 0.375874-83.622117 61.221334-131.404299 143.722422-131.404299 32.476849 0 57.488969 6.350296 69.807091 12.318122l-11.948842 45.546721c-13.815025-5.974421-30.986541-10.827814-58.609997-10.827815-47.406308 0-83.246242 26.878302-83.246243 81.38006 0 51.890422 32.476849 82.494494 79.144598 82.494494 13.056683 0 23.515217-1.490308 27.992736-3.72577v-52.635576H555.458904v-44.419098h93.704777v132.518733zM843.286216 531.624589h-92.577154v59.731026h103.404969v46.661154h-160.524658V386.411859h155.301985v46.661155h-98.182296V485.339309h92.577154v46.28528z" fill="" p-id="2087"></path><path d="M1051.790885 837.1048l-55.879963-168.945558a20.666486 20.666486 0 0 0-27.649834-12.555517l-163.122805 68.705846a19.017915 19.017915 0 1 0 14.771196 35.061808l121.638165-51.244181c-77.410301 168.873021-251.308167 284.642273-450.824827 275.832309-241.245289-10.662957-437.550533-205.016293-450.448952-446.156073C25.72028 265.64414 242.962375 39.565705 512.01576 39.565705c182.721018 0 341.419059 104.295197 419.950389 256.464897a19.670749 19.670749 0 0 0 24.952771 9.093517 19.809229 19.809229 0 0 0 10.122226-27.392656C878.460128 106.29986 695.943532-9.014386 487.966406 0.55392 226.898699 12.568705 14.71442 223.084631 0.767509 484.060018c-15.753745 294.942545 219.675386 539.933387 511.241657 539.933388 205.08883 0 382.184923-121.30845 463.841943-295.826179l39.967956 120.840256a18.945378 18.945378 0 1 0 35.97182-11.902683" fill="" p-id="2088"></path></svg>