<?xml version="1.0" standalone="no"?><!DOCTYPE svg PUBLIC "-//W3C//DTD SVG 1.1//EN" "http://www.w3.org/Graphics/SVG/1.1/DTD/svg11.dtd"><svg t="1482737503538" class="icon" style="" viewBox="0 0 1024 1024" version="1.1" xmlns="http://www.w3.org/2000/svg" p-id="1646" xmlns:xlink="http://www.w3.org/1999/xlink" width="200" height="200"><defs><style type="text/css"></style></defs><path d="M577.590218 562.930957l131.149746 0 0 32.787437-131.149746 0 0-32.787437Z" p-id="1647"></path><path d="M488.365139 597.227285c-12.19184 19.097958-26.951353 37.330478-58.052923 37.330478-31.037123 0-47.91829-18.113854-60.142865-36.913103-58.74957 0-54.822362 65.157499-54.822362 65.157499l228.884971 0C544.23196 662.802158 554.46173 597.256951 488.365139 597.227285z" p-id="1648"></path><path d="M577.590218 628.637794l131.149746 0 0 32.78846-131.149746 0 0-32.78846Z" p-id="1649"></path><path d="M512 128.383616c-211.865702 0-383.616384 171.750681-383.616384 383.616384 0 211.864679 171.750681 383.616384 383.616384 383.616384 211.864679 0 383.616384-171.751704 383.616384-383.616384C895.616384 300.134298 723.864679 128.383616 512 128.383616zM480.540388 266.665558c0-25.607161 14.065934-28.066398 31.377774-28.066398s31.345039 2.458214 31.345039 28.066398l0 99.542825c0 25.54169-14.033199 32.491796-31.345039 32.491796s-31.377774-6.950106-31.377774-32.491796L480.540388 266.665558zM772.93791 660.900444c0 37.114629-29.442302 67.213682-65.673079 67.213682L316.833375 728.114126c-36.394454 0-65.771285-28.196316-65.771285-65.311968L251.06209 433.291125c0-37.082917 29.409566-65.574873 65.771285-65.574873l127.509994 2.032655 0 18.131245c0 38.950873 30.311832 49.082438 67.656631 49.082438 37.278306 0 67.492955-10.131564 67.492955-49.082438l-1.901714-20.1639 129.674613 2.032655c36.26249 0 65.673079 30.131788 65.673079 67.214705L772.938933 660.900444z" p-id="1650"></path><path d="M577.590218 497.488048l131.149746 0 0 32.786414-131.149746 0 0-32.786414Z" p-id="1651"></path><path d="M430.018621 597.227285c27.144695 0 49.21031-53.054657 49.21031-80.798817 0-27.805538-22.065614-50.348883-49.21031-50.348883-27.112983 0-49.121311 22.544368-49.150977 50.348883C380.867644 544.141938 402.874949 597.227285 430.018621 597.227285z" p-id="1652"></path></svg>