<?xml version="1.0" standalone="no"?><!DOCTYPE svg PUBLIC "-//W3C//DTD SVG 1.1//EN" "http://www.w3.org/Graphics/SVG/1.1/DTD/svg11.dtd"><svg t="1482737441203" class="icon" style="" viewBox="0 0 1024 1024" version="1.1" xmlns="http://www.w3.org/2000/svg" p-id="995" xmlns:xlink="http://www.w3.org/1999/xlink" width="200" height="200"><defs><style type="text/css"></style></defs><path d="M614.4 0l0 102.4 235.52 0-189.44 189.44C588.8 235.52 501.76 204.8 409.6 204.8c-225.28 0-409.6 184.32-409.6 409.6 0 225.28 184.32 409.6 409.6 409.6s409.6-184.32 409.6-409.6c0-92.16-30.72-179.2-87.04-250.88L921.6 174.08 921.6 409.6l102.4 0L1024 0 614.4 0zM409.6 921.6c-168.96 0-307.2-138.24-307.2-307.2 0-168.96 138.24-307.2 307.2-307.2s307.2 138.24 307.2 307.2C716.8 783.36 578.56 921.6 409.6 921.6z" p-id="996"></path></svg>