<?xml version="1.0" standalone="no"?><!DOCTYPE svg PUBLIC "-//W3C//DTD SVG 1.1//EN" "http://www.w3.org/Graphics/SVG/1.1/DTD/svg11.dtd"><svg t="1482737750277" class="icon" style="" viewBox="0 0 1077 1024" version="1.1" xmlns="http://www.w3.org/2000/svg" p-id="3463" xmlns:xlink="http://www.w3.org/1999/xlink" width="210.3515625" height="200"><defs><style type="text/css"></style></defs><path d="M785.666943 97.103448m-97.103448 0a8.25 8.25 0 1 0 194.206897 0 8.25 8.25 0 1 0-194.206897 0Z" p-id="3464"></path><path d="M979.873839 556.137931m-97.103448 0a8.25 8.25 0 1 0 194.206897 0 8.25 8.25 0 1 0-194.206897 0Z" p-id="3465"></path><path d="M647.368092 926.896552m-97.103448 0a8.25 8.25 0 1 0 194.206897 0 8.25 8.25 0 1 0-194.206897 0Z" p-id="3466"></path><path d="M97.115218 653.241379m-97.103448 0a8.25 8.25 0 1 0 194.206897 0 8.25 8.25 0 1 0-194.206897 0Z" p-id="3467"></path><path d="M253.069241 238.344828m-97.103448 0a8.25 8.25 0 1 0 194.206897 0 8.25 8.25 0 1 0-194.206897 0Z" p-id="3468"></path><path d="M544.379586 504.643678m-164.781609 0a14 14 0 1 0 329.563218 0 14 14 0 1 0-329.563218 0Z" p-id="3469"></path><path d="M673.848012 942.570709l-48.578747 11.978321-57.335893-232.528898 48.578747-11.978321 57.335893 232.528898Z" p-id="3470"></path><path d="M190.472592 231.195601l30.87645-39.372352 188.461211 147.7944-30.87645 39.372352-188.461211-147.7944Z" p-id="3471"></path><path d="M106.356842 674.259066l-14.276561-47.942032 229.54645-68.356174 14.276561 47.942032-229.54645 68.356174Z" p-id="3472"></path><path d="M765.689785 91.855013l41.999301 27.172487-130.095476 201.082772-41.999301-27.172487 130.095476-201.082772Z" p-id="3473"></path><path d="M756.262087 565.350449l4.116892-49.85291 238.695735 19.711679-4.116892 49.85291-238.695735-19.711679Z" p-id="3474"></path></svg>